<svg width="143" height="35" viewBox="0 0 143 35" fill="none" xmlns="http://www.w3.org/2000/svg">
<path d="M56.4878 12.4096H60.9593V26.4546H56.4878V12.4096Z" fill="#CC1F27"/>
<path d="M61.8926 12.4096H66.1994V14.3298H66.2816C67.324 12.821 68.6681 11.9982 70.6159 11.9982C73.6882 11.9982 75.4986 14.1927 75.4986 17.3199V26.4546H71.0273V18.2252C71.0273 16.7438 70.2867 15.7287 68.8328 15.7287C67.3516 15.7287 66.3639 16.9632 66.3639 18.6914V26.4546H61.8926V12.4096Z" fill="#CC1F27"/>
<path d="M61.4048 8.65245C61.4048 7.17105 60.204 5.97029 58.7227 5.97029C57.2414 5.97029 56.0405 7.17105 56.0405 8.65245C56.0405 10.1337 57.2414 11.3345 58.7227 11.3345C60.204 11.3345 61.4048 10.1337 61.4048 8.65245Z" fill="#CC1F27"/>
<path d="M106.948 12.2068C106.82 12.1954 106.674 12.1902 106.503 12.1902C104.802 12.1902 103.65 12.9309 102.662 14.6042H102.58V12.4097H98.3008V26.4546H102.772V20.1454C102.772 17.222 104.391 15.8674 106.948 16.1037V12.2068Z" fill="#CC1F27"/>
<path d="M128.888 17.5951C127.105 17.266 125.514 17.1289 125.514 16.1414C125.514 15.2635 126.365 14.8521 127.462 14.8521C128.696 14.8521 129.547 15.2361 129.711 16.498H133.826C133.607 13.7274 131.467 11.9991 127.489 11.9991C124.17 11.9991 121.427 13.5353 121.427 16.498C121.427 19.7896 124.033 20.448 126.474 20.8596C128.34 21.1888 130.04 21.326 130.04 22.5877C130.04 23.4931 129.19 23.9868 127.846 23.9868C126.497 23.9868 125.605 23.4162 125.332 22.2587H121.071C121.385 25.1459 123.919 26.8945 127.873 26.8945C131.549 26.8945 134.265 25.3035 134.265 22.2313C134.265 18.6376 131.357 18.0067 128.888 17.5951Z" fill="#CC1F27"/>
<path d="M113.884 15.1802C115.338 15.1802 116.38 16.2501 116.545 17.9236H111.004C111.306 16.2501 112.184 15.1802 113.884 15.1802ZM114.131 23.6565C112.293 23.6565 111.251 22.4771 110.976 20.5843H121.071C121.099 17.7315 120.276 15.29 118.602 13.7539C117.395 12.6567 115.804 11.9982 113.802 11.9982C109.523 11.9982 106.587 15.2076 106.587 19.4048C106.587 23.6565 109.44 26.8662 114.076 26.8662C115.859 26.8662 117.286 26.3999 118.465 25.5769C119.7 24.7265 120.523 23.5195 120.824 22.2577H116.463C116.079 23.1355 115.311 23.6565 114.131 23.6565Z" fill="#CC1F27"/>
<path d="M142.138 23.1422C141.931 23.1503 141.652 23.1624 141.397 23.1624C140.437 23.1624 139.833 22.888 139.833 21.7907V15.2071H142.138V12.4091H139.833V7.96517H135.471V12.4091H134.099V15.2071H135.471V22.7508C135.471 25.7684 137.337 26.6187 139.943 26.6187C140.937 26.6187 141.689 26.5442 142.138 26.4566V23.1422Z" fill="#CC1F27"/>
<path d="M83.4816 23.15C83.3033 23.1569 83.0974 23.1638 82.905 23.1638C81.945 23.1638 81.3414 22.8894 81.3414 21.7922V15.2086H83.4816V12.4106H81.3414V7.96664H76.9798V12.4106H75.5254V15.2086H76.9798V22.7523C76.9798 25.7699 78.8451 26.6201 81.4511 26.6201C82.3329 26.6201 83.0233 26.5614 83.4816 26.4871V23.15Z" fill="#CC1F27"/>
<path d="M93.2248 17.9236C93.0603 16.2502 92.0177 15.1802 90.5638 15.1802C88.8631 15.1802 87.9853 16.2502 87.6835 17.9236H93.2248ZM83.2671 19.4048C83.2671 15.2078 86.2022 11.9984 90.4816 11.9984C92.484 11.9984 94.0752 12.6567 95.2821 13.7539C96.9555 15.2901 97.7783 17.7315 97.7509 20.5844H87.6562C87.9304 22.4771 88.9728 23.6567 90.8108 23.6567C91.9903 23.6567 92.7584 23.1355 93.1423 22.2577H97.504C97.2022 23.5195 96.3794 24.7265 95.1449 25.577C93.9654 26.3999 92.539 26.8662 90.7559 26.8662C86.1199 26.8662 83.2671 23.6567 83.2671 19.4048Z" fill="#CC1F27"/>
<path d="M48.7231 16.0581C50.4787 16.0581 51.4663 15.0156 51.4663 13.4519C51.4663 11.8884 50.4512 10.9283 48.7231 10.9283H45.2939V16.0581H48.7231ZM40.7671 6.841H48.5318C50.9183 6.841 52.6739 7.4993 53.8809 8.65148C55.1428 9.83093 55.8561 11.5044 55.8561 13.4794C55.8561 17.2375 53.25 19.8985 49.2175 19.8985H45.2939V26.4546H40.7671V6.841Z" fill="#CC1F27"/>
<path d="M34.6302 17.2374C34.6302 26.5609 27.0719 34.1191 17.7484 34.1191C8.42496 34.1191 0.866699 26.5609 0.866699 17.2374C0.866699 7.91377 8.42496 0.355644 17.7484 0.355644C27.0719 0.355644 34.6302 7.91377 34.6302 17.2374Z" fill="white"/>
<path d="M17.748 0.355156C8.42447 0.355156 0.866211 7.91342 0.866211 17.2369C0.866211 24.3889 5.31595 30.5028 11.5958 32.9626C11.4483 31.6269 11.3149 29.5727 11.6544 28.1146C11.9612 26.797 13.6339 19.7233 13.6339 19.7233C13.6339 19.7233 13.129 18.7119 13.129 17.2168C13.129 14.8694 14.4896 13.1169 16.1837 13.1169C17.624 13.1169 18.3196 14.1983 18.3196 15.4949C18.3196 16.9434 17.3974 19.109 16.9215 21.1158C16.5238 22.7961 17.7642 24.1663 19.4214 24.1663C22.4219 24.1663 24.7283 21.0026 24.7283 16.4358C24.7283 12.3937 21.8239 9.56766 17.6767 9.56766C12.8732 9.56766 10.0538 13.1705 10.0538 16.8939C10.0538 18.3448 10.6127 19.9007 11.3102 20.7465C11.4482 20.9136 11.4684 21.06 11.4273 21.2307C11.2991 21.7639 11.0143 22.9105 10.9584 23.1452C10.8848 23.4542 10.7138 23.5198 10.3938 23.3709C8.2854 22.3895 6.96715 19.3069 6.96715 16.8309C6.96715 11.5056 10.8364 6.61496 18.1216 6.61496C23.9779 6.61496 28.5289 10.7881 28.5289 16.3651C28.5289 22.1832 24.8605 26.8655 19.7688 26.8655C18.0581 26.8655 16.4499 25.9768 15.8994 24.927C15.8994 24.927 15.0529 28.1503 14.8477 28.9402C14.4666 30.4065 13.4377 32.2445 12.7495 33.3658C14.329 33.8549 16.0076 34.1187 17.748 34.1187C27.0716 34.1187 34.6298 26.5604 34.6298 17.2369C34.6298 7.91342 27.0716 0.355156 17.748 0.355156Z" fill="#CC1F27"/>
</svg>
