<svg width="115" height="38" viewBox="0 0 115 38" fill="none" xmlns="http://www.w3.org/2000/svg">
<path d="M49.0179 20.2213C49.0179 25.6142 44.799 29.5882 39.6215 29.5882C34.444 29.5882 30.2251 25.6142 30.2251 20.2213C30.2251 14.7904 34.444 10.8545 39.6215 10.8545C44.799 10.8545 49.0179 14.7904 49.0179 20.2213ZM44.9046 20.2213C44.9046 16.8513 42.4594 14.5455 39.6215 14.5455C36.7836 14.5455 34.3384 16.8513 34.3384 20.2213C34.3384 23.5576 36.7836 25.8972 39.6215 25.8972C42.4594 25.8972 44.9046 23.5534 44.9046 20.2213Z" fill="#EA4335"/>
<path d="M69.2884 20.2213C69.2884 25.6142 65.0695 29.5882 59.892 29.5882C54.7145 29.5882 50.4956 25.6142 50.4956 20.2213C50.4956 14.7946 54.7145 10.8545 59.892 10.8545C65.0695 10.8545 69.2884 14.7904 69.2884 20.2213ZM65.1751 20.2213C65.1751 16.8513 62.7299 14.5455 59.892 14.5455C57.0541 14.5455 54.6089 16.8513 54.6089 20.2213C54.6089 23.5576 57.0541 25.8972 59.892 25.8972C62.7299 25.8972 65.1751 23.5534 65.1751 20.2213Z" fill="#FBBC05"/>
<path d="M88.7154 11.4204V28.2368C88.7154 35.1542 84.6359 37.9795 79.8131 37.9795C75.2733 37.9795 72.5409 34.9431 71.5105 32.4599L75.0917 30.9691C75.7294 32.4937 77.2919 34.2927 79.8089 34.2927C82.896 34.2927 84.8091 32.3881 84.8091 28.8027V27.4555H84.6655C83.7448 28.5915 81.9711 29.584 79.7329 29.584C75.0495 29.584 70.7588 25.5044 70.7588 20.2551C70.7588 14.9678 75.0495 10.8545 79.7329 10.8545C81.9669 10.8545 83.7406 11.8469 84.6655 12.9492H84.8091V11.4246H88.7154V11.4204ZM85.1005 20.2551C85.1005 16.9569 82.9002 14.5455 80.1003 14.5455C77.2624 14.5455 74.8848 16.9569 74.8848 20.2551C74.8848 23.5196 77.2624 25.8972 80.1003 25.8972C82.9002 25.8972 85.1005 23.5196 85.1005 20.2551Z" fill="#4285F4"/>
<path d="M95.1555 1.56348V29.0137H91.1436V1.56348H95.1555Z" fill="#34A853"/>
<path d="M110.789 23.304L113.982 25.4325C112.952 26.957 110.469 29.5838 106.178 29.5838C100.857 29.5838 96.8828 25.4705 96.8828 20.2169C96.8828 14.6467 100.891 10.8501 105.718 10.8501C110.578 10.8501 112.956 14.7185 113.733 16.8089L114.16 17.8731L101.638 23.0591C102.597 24.9384 104.087 25.897 106.178 25.897C108.273 25.897 109.725 24.8666 110.789 23.304ZM100.962 19.934L109.333 16.4584C108.872 15.2886 107.487 14.4735 105.857 14.4735C103.766 14.4735 100.857 16.319 100.962 19.934Z" fill="#EA4335"/>
<path d="M15.0384 17.784V13.8101H28.4299C28.5608 14.5027 28.6284 15.3219 28.6284 16.2088C28.6284 19.1903 27.8133 22.8771 25.1865 25.5039C22.6316 28.1644 19.3671 29.5834 15.0426 29.5834C7.02718 29.5834 0.287109 23.0544 0.287109 15.039C0.287109 7.02355 7.02718 0.494629 15.0426 0.494629C19.4769 0.494629 22.6358 2.23455 25.0092 4.50235L22.205 7.3065C20.5031 5.71016 18.1973 4.46857 15.0384 4.46857C9.18519 4.46857 4.60734 9.18578 4.60734 15.039C4.60734 20.8922 9.18519 25.6094 15.0384 25.6094C18.835 25.6094 20.9972 24.0849 22.3824 22.6997C23.5057 21.5764 24.2448 19.9716 24.5362 17.7798L15.0384 17.784Z" fill="#4285F4"/>
</svg>
