<svg width="116" height="27" viewBox="0 0 116 27" fill="none" xmlns="http://www.w3.org/2000/svg">
<path d="M36.5701 4.42994C36.1478 2.86154 34.9112 1.62492 33.3428 1.20266C30.4775 0.418457 19.0161 0.418457 19.0161 0.418457C19.0161 0.418457 7.55468 0.418457 4.68933 1.1725C3.15109 1.59476 1.88431 2.86154 1.46205 4.42994C0.708008 7.29529 0.708008 13.2371 0.708008 13.2371C0.708008 13.2371 0.708008 19.2091 1.46205 22.0443C1.88431 23.6127 3.12093 24.8493 4.68933 25.2716C7.58484 26.0558 19.0161 26.0558 19.0161 26.0558C19.0161 26.0558 30.4775 26.0558 33.3428 25.3017C34.9112 24.8795 36.1478 23.6428 36.5701 22.0744C37.3241 19.2091 37.3241 13.2673 37.3241 13.2673C37.3241 13.2673 37.3543 7.29529 36.5701 4.42994Z" fill="#FF0000"/>
<path d="M15.3647 18.7264L24.8958 13.237L15.3647 7.74756V18.7264Z" fill="white"/>
<path d="M53.8838 23.7634C53.1599 23.2808 52.6471 22.5268 52.3455 21.4711C52.0439 20.4456 51.8931 19.0582 51.8931 17.3691V15.0467C51.8931 13.3275 52.0741 11.94 52.4058 10.8844C52.7678 9.82874 53.3107 9.0747 54.0346 8.59211C54.7886 8.10953 55.7538 7.86824 56.9602 7.86824C58.1365 7.86824 59.1017 8.10953 59.8256 8.59211C60.5495 9.0747 61.0622 9.8589 61.394 10.8844C61.7258 11.9099 61.9067 13.2973 61.9067 15.0467V17.3691C61.9067 19.0883 61.7559 20.4456 61.4241 21.5013C61.0924 22.5267 60.5796 23.3109 59.8557 23.7935C59.1319 24.2761 58.1365 24.5174 56.8999 24.5174C55.6331 24.4872 54.6076 24.246 53.8838 23.7634ZM57.9556 21.2298C58.1667 20.7171 58.2572 19.8424 58.2572 18.6661V13.6593C58.2572 12.5131 58.1667 11.6686 57.9556 11.1257C57.7444 10.5828 57.4127 10.3415 56.8999 10.3415C56.4173 10.3415 56.0554 10.6129 55.8744 11.1257C55.6633 11.6686 55.5728 12.5131 55.5728 13.6593V18.6661C55.5728 19.8424 55.6633 20.7171 55.8744 21.2298C56.0554 21.7425 56.4173 22.014 56.9301 22.014C57.4126 22.014 57.7444 21.7727 57.9556 21.2298ZM109.562 17.3993V18.2136C109.562 19.2391 109.592 20.0233 109.652 20.5361C109.713 21.0488 109.833 21.4409 110.045 21.6521C110.226 21.8934 110.527 22.014 110.949 22.014C111.492 22.014 111.854 21.8029 112.065 21.3806C112.277 20.9583 112.367 20.2646 112.397 19.2693L115.504 19.4503C115.534 19.6011 115.534 19.782 115.534 20.0233C115.534 21.5013 115.142 22.6172 114.327 23.3411C113.513 24.065 112.367 24.4269 110.889 24.4269C109.11 24.4269 107.873 23.8539 107.149 22.7379C106.425 21.6219 106.063 19.9027 106.063 17.5501V14.7451C106.063 12.3321 106.425 10.5828 107.179 9.4668C107.933 8.35082 109.2 7.80791 110.98 7.80791C112.216 7.80791 113.181 8.04921 113.845 8.50163C114.508 8.95405 114.961 9.67793 115.232 10.6129C115.504 11.5781 115.624 12.9052 115.624 14.5943V17.339H109.562V17.3993ZM110.014 10.6431C109.833 10.8844 109.713 11.2463 109.652 11.7591C109.592 12.2718 109.562 13.056 109.562 14.1117V15.2578H112.216V14.1117C112.216 13.0862 112.186 12.302 112.126 11.7591C112.065 11.2162 111.915 10.8542 111.734 10.6431C111.553 10.432 111.251 10.3113 110.889 10.3113C110.467 10.2812 110.195 10.4018 110.014 10.6431ZM45.0766 17.0977L40.9746 2.22803H44.5638L46.0116 8.95405C46.3735 10.6129 46.645 12.0305 46.8259 13.2068H46.9164C47.0371 12.3623 47.3085 10.9749 47.7308 8.98421L49.2389 2.22803H52.8281L48.6658 17.0977V24.2158H45.1067V17.0977H45.0766ZM73.5792 8.16985V24.246H70.7441L70.4424 22.2855H70.352C69.5979 23.7634 68.4216 24.5174 66.8834 24.5174C65.8277 24.5174 65.0435 24.1555 64.5308 23.4618C64.018 22.768 63.7767 21.6822 63.7767 20.1741V8.16985H67.3961V19.963C67.3961 20.6869 67.4866 21.1996 67.6374 21.5013C67.7882 21.8029 68.0597 21.9537 68.4216 21.9537C68.7232 21.9537 69.0248 21.8632 69.3265 21.6521C69.6281 21.4711 69.8392 21.2298 69.9599 20.9282V8.16985H73.5792ZM92.1286 8.16985V24.246H89.2934L88.9918 22.2855H88.9013C88.1473 23.7634 86.971 24.5174 85.4327 24.5174C84.3771 24.5174 83.5929 24.1555 83.0801 23.4618C82.5674 22.768 82.3261 21.6822 82.3261 20.1741V8.16985H85.9455V19.963C85.9455 20.6869 86.036 21.1996 86.1868 21.5013C86.3376 21.8029 86.609 21.9537 86.971 21.9537C87.2726 21.9537 87.5742 21.8632 87.8758 21.6521C88.1774 21.4711 88.3886 21.2298 88.5092 20.9282V8.16985H92.1286Z" fill="#170F49"/>
<path d="M83.4124 5.15361H79.8232V24.2157H76.2943V5.15361H72.7051V2.22794H83.4124V5.15361ZM104.103 10.7335C103.892 9.708 103.53 8.98412 103.048 8.5317C102.565 8.07928 101.871 7.83798 101.027 7.83798C100.363 7.83798 99.7298 8.01895 99.1568 8.41105C98.5837 8.77299 98.1313 9.28574 97.8296 9.88897H97.7995V1.41357H94.3007V24.2157H97.2867L97.6487 22.7076H97.7392C98.0106 23.2505 98.4329 23.6728 99.0059 24.0046C99.579 24.3062 100.182 24.4872 100.876 24.4872C102.113 24.4872 102.987 23.9141 103.56 22.7981C104.133 21.6821 104.435 19.9026 104.435 17.5198V14.9863C104.405 13.1464 104.314 11.7288 104.103 10.7335ZM100.785 17.2785C100.785 18.4548 100.725 19.3597 100.635 20.0232C100.544 20.6868 100.363 21.1694 100.152 21.4408C99.9108 21.7123 99.6092 21.8631 99.2472 21.8631C98.9456 21.8631 98.6742 21.8028 98.4329 21.652C98.1916 21.5012 97.9805 21.29 97.8296 21.0186V11.9098C97.9503 11.4875 98.1614 11.1256 98.463 10.824C98.7647 10.5525 99.0964 10.4017 99.4282 10.4017C99.7901 10.4017 100.092 10.5525 100.273 10.824C100.484 11.1256 100.605 11.6082 100.695 12.2717C100.785 12.9654 100.816 13.9306 100.816 15.1672V17.2785H100.785Z" fill="#170F49"/>
</svg>
