<svg width="135" height="35" viewBox="0 0 135 35" fill="none" xmlns="http://www.w3.org/2000/svg">
<path d="M43.595 13.5495C43.595 11.1093 41.254 8.55024 37.1851 8.55024C32.622 8.55024 27.6121 11.91 26.845 18.6158C26.0611 25.3872 30.2566 28.3962 34.4857 28.3962C38.7147 28.3962 40.9291 26.7415 43.1939 24.5347C41.2464 22.0793 38.7315 23.2139 38.2496 23.4641C37.4518 23.9086 36.5484 24.1284 35.6356 24.1C34.0037 24.1 32.3383 23.3649 32.3383 20.3056C42.7943 19.2685 43.5935 15.9744 43.5935 13.5495H43.595ZM38.4128 13.9506C38.3457 14.7024 38.0467 15.9896 32.7516 16.711C33.865 12.7305 36.0001 12.4316 36.9807 12.4316C37.1794 12.4225 37.3778 12.4563 37.5623 12.5307C37.7468 12.6051 37.9132 12.7184 38.0501 12.8627C38.1869 13.0071 38.2911 13.1793 38.3555 13.3675C38.42 13.5558 38.4431 13.7556 38.4234 13.9536L38.4128 13.9506ZM20.7035 14.6033L18.2725 22.2775L16.5568 8.95287C12.7288 8.95287 10.6699 11.695 9.59627 14.5865L6.63151 22.2943L6.21516 14.6689C5.98945 11.1246 2.75322 8.96812 0.137695 8.96812L3.30072 28.2452C7.3117 28.2299 9.47732 25.5031 10.6105 22.6115L13.1177 16.0582C13.1406 16.3251 14.8502 28.2467 14.8502 28.2467C18.8795 28.2467 21.0451 25.6891 22.2057 22.8967L27.8485 8.96964C23.8756 8.96964 21.7817 11.695 20.7004 14.6033H20.7035ZM58.3822 8.50297C55.9009 8.50297 54.0052 9.85724 52.4039 11.846V11.8307L53.8344 0.244629C50.5372 0.244629 47.8561 3.12094 47.3406 7.40033L44.8608 28.0957C46.7596 28.0957 48.7742 27.5437 49.857 26.139C50.8239 27.3927 52.2712 28.3962 54.4201 28.3962C59.9805 28.3962 63.7948 21.91 63.7948 15.8234C63.7612 10.2721 61.0801 8.51822 58.399 8.51822L58.3822 8.50297ZM57.8637 18.4511C57.2842 21.8444 55.3992 24.1519 53.5858 24.1519C51.7725 24.1519 50.9718 23.3329 50.9718 23.3329C51.3226 20.359 51.5392 18.535 52.2041 16.9626C52.869 15.3902 54.4521 12.883 56.1007 12.883C57.7173 12.883 58.4493 15.0395 57.8652 18.4496L57.8637 18.4511ZM77.6624 8.95439H73.7825L73.7978 8.75308C74.0647 6.21229 74.664 4.87479 76.6405 4.6567C77.9902 4.52249 78.5896 3.82095 78.7391 3.05231L79.2225 0.360536C71.4446 0.310208 68.9831 3.68522 68.3563 8.83696L68.341 8.95439H68.2571C66.9913 8.95439 65.5944 10.3925 65.3595 12.215L65.2756 12.883H67.8744L65.6935 30.9705L65.0255 34.2144C65.1094 34.2144 65.2085 34.2296 65.2909 34.2296C68.9358 34.0954 71.2692 31.2039 71.7847 27.0068L73.4867 12.88H74.7067C75.9054 12.88 77.3055 11.6751 77.5495 9.66965L77.6624 8.95439ZM97.8423 8.61887C93.3631 8.61887 89.134 11.9283 87.8377 17.1288C86.5414 22.3294 88.5057 28.4801 95.0971 28.4801C101.689 28.4801 105.463 22.0747 105.463 16.743C105.469 11.4433 101.891 8.61735 97.8438 8.61735L97.8423 8.61887ZM99.6571 18.2818C99.4253 20.6396 98.3913 24.2174 95.5608 24.2174C92.7302 24.2174 93.113 20.0387 93.3875 18.0485C93.6879 15.9256 94.8699 12.8998 97.4168 12.8998C99.7075 12.8998 99.9225 15.6251 99.6587 18.2833L99.6571 18.2818ZM127.597 14.5865L125.166 22.2608C125.1 21.6583 123.452 8.93609 123.452 8.93609C119.624 8.93609 117.574 11.6782 116.5 14.5698L113.535 22.2775C113.52 21.7255 113.119 14.6521 113.119 14.6521C112.878 11.1078 109.645 8.95134 107.019 8.95134L110.165 28.2284C114.176 28.2132 116.342 25.4863 117.475 22.5947L119.973 16.0415C119.988 16.3083 121.705 28.2299 121.705 28.2299C125.735 28.2299 127.891 25.6724 129.061 22.8799L134.708 8.95287C130.746 8.95287 128.647 11.6782 127.581 14.5865H127.597ZM81.3256 0.357487L78.0619 26.7872L77.3939 30.0478C77.4763 30.0478 77.577 30.0631 77.6593 30.0631C81.1701 30.0128 83.6681 26.9214 84.1363 23.0248L86.0168 7.8609C86.5871 3.22922 83.8405 0.354436 81.3256 0.354436V0.357487Z" fill="#4353FF"/>
</svg>
