<svg width="91" height="31" viewBox="0 0 91 31" fill="none" xmlns="http://www.w3.org/2000/svg">
<path fill-rule="evenodd" clip-rule="evenodd" d="M90.4966 9.84182V24.7561L82.4049 30.4683H77.4304V27.9294L73.6985 30.4683H69.345V27.9294L66.5463 30.4683H58.4616L55.9743 27.9294L55.352 30.4683L48.2157 30.4488L45.4017 27.9294L45.0909 30.4683L37.0062 30.4488L36.6954 27.9294L34.5189 30.4488L22.0807 30.4683L19.5928 29.1988V30.4683H12.7514L5.28835 25.7083L0.624023 20.9484V0.00537109H10.2635L14.9278 4.76532H36.0731V0.00537109H53.4871V4.76532H57.8406V7.30422L60.3285 4.76532H65.6151L70.2794 0.00537109H80.2298V4.76532H85.5164L90.4966 9.84182ZM12.7514 6.98572H8.39791V2.22577H2.80046V19.9968L6.22084 23.8045H12.7514V17.7751H8.39791V12.6986H12.7514V6.98572ZM36.0731 6.98572H30.4756V17.7757H28.2992V6.98572H23.0126V17.7757H20.8361V6.98572H14.9278V23.8045H32.3419L36.0731 19.9968V6.98572ZM43.5361 6.98572H38.2495V23.8045H43.5361V6.98572ZM43.5361 2.22577H38.2495V4.76467H43.5361V2.22577ZM55.6635 6.98572H51.31V2.22577H45.7132V19.9968L49.1336 23.8045H55.6622V17.7751H51.3087V12.6986H55.6622L55.6635 6.98572ZM69.9673 6.98572H61.261L57.8406 10.4762V19.9968L61.5718 23.8045H69.9667V17.7751H63.7476V12.6986H69.9667L69.9673 6.98572ZM88.3138 10.4762L84.5826 6.98572H78.0527V2.22577H72.1444V23.8045H78.0527V12.6973H82.4062V23.8038H88.3145L88.3138 10.4762Z" fill="#9147FF"/>
</svg>
