<svg width="109" height="22" viewBox="0 0 109 22" fill="none" xmlns="http://www.w3.org/2000/svg">
<path d="M7.0458 21.5414H2.94959V11.2209H0.15918V7.86081H2.94948V5.46983C2.94948 2.63652 4.18364 0.604492 8.26876 0.604492C9.13276 0.604492 10.4892 0.780503 10.4892 0.780503V3.90057H9.06449C7.61281 3.90057 7.04601 4.34686 7.04601 5.58069V7.86081H10.4349L10.1331 11.2209H7.04591L7.0458 21.5414ZM16.4446 7.59229C16.385 7.59229 16.3235 7.59448 16.2628 7.59602C12.4645 7.59602 10.7267 10.4836 10.7267 14.5826C10.7267 19.7462 12.9809 21.8129 16.2925 21.8129C18.1871 21.8129 19.4319 21.0069 20.1885 19.5028V21.5428H24.0846V7.86223H20.1885V9.96612C19.5707 8.61253 18.2911 7.60833 16.4446 7.59229ZM17.4353 10.825C19.0306 10.825 19.9881 11.9496 19.9881 13.8625L19.9918 15.8163C19.9918 17.1056 19.2009 18.614 17.4353 18.614C14.7209 18.614 14.7934 15.6517 14.7934 14.6651C14.7934 11.3463 16.2396 10.825 17.4353 10.825ZM25.658 14.7032C25.658 13.0408 25.5793 7.60119 32.5914 7.60119C35.4062 7.60119 36.5815 8.50574 36.5815 8.50574L35.6368 11.467C35.6368 11.467 34.463 10.8138 32.9335 10.8138C30.9745 10.8138 29.7245 11.9616 29.7245 13.9811L29.7266 15.4291C29.7266 17.3697 30.9327 18.665 32.9375 18.665C34.3309 18.665 35.6152 18.0056 35.6152 18.0056L36.5575 20.905C36.5575 20.905 35.4828 21.8153 32.6111 21.8153C25.9345 21.8153 25.6581 16.9349 25.6581 14.7032H25.658ZM59.4256 7.59602C63.224 7.59602 64.9892 10.4836 64.9892 14.5826C64.9892 19.7462 62.7349 21.8129 59.4233 21.8129C57.5287 21.8129 56.1281 21.007 55.3715 19.5028V21.5428L51.5244 21.5413V1.02046L55.609 0.660416V9.78077C56.1985 8.18514 58.1359 7.59602 59.4257 7.59602H59.4256ZM58.2805 10.825C56.6852 10.825 55.609 11.9496 55.609 13.8625L55.6052 15.8163C55.6028 17.1056 56.3505 18.614 58.2805 18.614C60.9949 18.614 60.9224 15.6517 60.9224 14.6651C60.9224 11.3463 59.4763 10.825 58.2805 10.825ZM43.6686 7.60734C39.3605 7.60734 37.0861 9.98128 37.0861 14.2V14.9838C37.0861 20.4594 40.2801 21.8691 44.0879 21.8691C47.789 21.8691 49.4643 20.8228 49.4643 20.8228L48.7 18.0366C48.7 18.0366 46.7293 18.884 44.5776 18.884C42.3469 18.884 41.3876 18.3094 41.1417 16.1427H49.7909V13.9075C49.7909 9.33119 47.2383 7.60723 43.6685 7.60723L43.6686 7.60734ZM43.7724 10.3974C45.2636 10.3974 46.2299 11.3216 46.1769 13.465H41.1492C41.2364 11.2091 42.2784 10.3975 43.7724 10.3975V10.3974ZM73.1336 7.58855C68.7096 7.58855 66.3805 10.1083 66.3805 14.6238C66.3805 20.8193 70.3953 21.8166 73.141 21.8166C77.1606 21.8166 79.8348 19.6294 79.8348 14.6801C79.8348 9.52862 76.8279 7.58855 73.1336 7.58855ZM73.078 10.8362C75.0233 10.8362 75.7941 12.3077 75.7941 13.9826V15.4227C75.7941 17.4517 74.7155 18.6254 73.0706 18.6254C71.5321 18.6254 70.4509 17.5275 70.4509 15.4227V13.9826C70.4509 11.7378 71.7375 10.8362 73.078 10.8362ZM87.972 7.58855C83.5479 7.58855 81.2189 10.1083 81.2189 14.6238C81.2189 20.8193 85.2336 21.8166 87.9794 21.8166C91.9988 21.8166 94.6731 19.6294 94.6731 14.6801C94.6731 9.52862 91.6662 7.58855 87.972 7.58855ZM87.9163 10.8362C89.8616 10.8362 90.6324 12.3077 90.6324 13.9826V15.4227C90.6324 17.4517 89.5538 18.6254 87.9089 18.6254C86.3705 18.6254 85.2893 17.5275 85.2893 15.4227V13.9826C85.2893 11.7378 86.5759 10.8362 87.9163 10.8362ZM96.2167 21.5414V1.02046L100.313 0.660416V14.4148L104.377 7.86081H108.703L104.464 14.6489L108.867 21.5414H104.528L100.313 14.8488V21.5414H96.2167Z" fill="#1877F2"/>
</svg>
